<mxfile host="app.diagrams.net" modified="2024-05-15T16:20:57.822Z" agent="Mozilla/5.0 (Windows NT 10.0; Win64; x64) AppleWebKit/537.36 (KHTML, like Gecko) Chrome/124.0.0.0 Safari/537.36" etag="tCsyceemC0JiHIRftoqP" version="24.4.0" type="github">
  <diagram name="หน้า-1" id="bA-24ORlJP5vfWoPBaNp">
    <mxGraphModel dx="801" dy="1022" grid="1" gridSize="10" guides="1" tooltips="1" connect="1" arrows="1" fold="1" page="1" pageScale="1" pageWidth="827" pageHeight="1169" math="0" shadow="0">
      <root>
        <mxCell id="0" />
        <mxCell id="1" parent="0" />
        <mxCell id="O_P5X878wxLX0TTWx2cp-15" style="edgeStyle=orthogonalEdgeStyle;rounded=0;orthogonalLoop=1;jettySize=auto;html=1;exitX=0.5;exitY=1;exitDx=0;exitDy=0;entryX=0.5;entryY=0;entryDx=0;entryDy=0;" parent="1" source="O_P5X878wxLX0TTWx2cp-11" target="O_P5X878wxLX0TTWx2cp-13" edge="1">
          <mxGeometry relative="1" as="geometry" />
        </mxCell>
        <mxCell id="O_P5X878wxLX0TTWx2cp-11" value="&lt;font style=&quot;font-size: 18px;&quot;&gt;motion detector&lt;/font&gt;" style="rounded=0;whiteSpace=wrap;html=1;" parent="1" vertex="1">
          <mxGeometry x="354" y="280" width="120" height="60" as="geometry" />
        </mxCell>
        <mxCell id="O_P5X878wxLX0TTWx2cp-14" style="edgeStyle=orthogonalEdgeStyle;rounded=0;orthogonalLoop=1;jettySize=auto;html=1;entryX=0.5;entryY=0;entryDx=0;entryDy=0;" parent="1" source="O_P5X878wxLX0TTWx2cp-12" target="O_P5X878wxLX0TTWx2cp-11" edge="1">
          <mxGeometry relative="1" as="geometry" />
        </mxCell>
        <mxCell id="O_P5X878wxLX0TTWx2cp-12" value="&lt;font style=&quot;font-size: 24px;&quot;&gt;start&lt;/font&gt;" style="ellipse;whiteSpace=wrap;html=1;" parent="1" vertex="1">
          <mxGeometry x="354" y="150" width="120" height="80" as="geometry" />
        </mxCell>
        <mxCell id="O_P5X878wxLX0TTWx2cp-20" style="edgeStyle=orthogonalEdgeStyle;rounded=0;orthogonalLoop=1;jettySize=auto;html=1;exitX=1;exitY=0.5;exitDx=0;exitDy=0;entryX=0.5;entryY=0;entryDx=0;entryDy=0;" parent="1" source="O_P5X878wxLX0TTWx2cp-13" target="O_P5X878wxLX0TTWx2cp-19" edge="1">
          <mxGeometry relative="1" as="geometry" />
        </mxCell>
        <mxCell id="O_P5X878wxLX0TTWx2cp-25" value="True" style="edgeLabel;html=1;align=center;verticalAlign=middle;resizable=0;points=[];" parent="O_P5X878wxLX0TTWx2cp-20" connectable="0" vertex="1">
          <mxGeometry x="-0.4556" y="1" relative="1" as="geometry">
            <mxPoint as="offset" />
          </mxGeometry>
        </mxCell>
        <mxCell id="x7ZbuQkRyp-WL0nQvcKQ-2" style="edgeStyle=orthogonalEdgeStyle;rounded=0;orthogonalLoop=1;jettySize=auto;html=1;" parent="1" source="O_P5X878wxLX0TTWx2cp-13" target="x7ZbuQkRyp-WL0nQvcKQ-1" edge="1">
          <mxGeometry relative="1" as="geometry" />
        </mxCell>
        <mxCell id="x7ZbuQkRyp-WL0nQvcKQ-3" value="False" style="edgeLabel;html=1;align=center;verticalAlign=middle;resizable=0;points=[];" parent="x7ZbuQkRyp-WL0nQvcKQ-2" vertex="1" connectable="0">
          <mxGeometry x="-0.6947" relative="1" as="geometry">
            <mxPoint as="offset" />
          </mxGeometry>
        </mxCell>
        <mxCell id="O_P5X878wxLX0TTWx2cp-13" value="&lt;font style=&quot;&quot;&gt;&lt;font style=&quot;font-size: 18px;&quot;&gt;If (vibration = hard&lt;span style=&quot;background-color: initial;&quot;&gt;)&lt;/span&gt;&lt;/font&gt;&lt;br&gt;&lt;/font&gt;" style="rhombus;whiteSpace=wrap;html=1;" parent="1" vertex="1">
          <mxGeometry x="279" y="410" width="270" height="150" as="geometry" />
        </mxCell>
        <mxCell id="O_P5X878wxLX0TTWx2cp-16" value="&lt;font style=&quot;font-size: 24px;&quot;&gt;end&lt;/font&gt;" style="ellipse;whiteSpace=wrap;html=1;" parent="1" vertex="1">
          <mxGeometry x="354" y="810" width="120" height="80" as="geometry" />
        </mxCell>
        <mxCell id="O_P5X878wxLX0TTWx2cp-22" style="edgeStyle=orthogonalEdgeStyle;rounded=0;orthogonalLoop=1;jettySize=auto;html=1;entryX=0.5;entryY=0;entryDx=0;entryDy=0;" parent="1" source="O_P5X878wxLX0TTWx2cp-19" target="O_P5X878wxLX0TTWx2cp-21" edge="1">
          <mxGeometry relative="1" as="geometry" />
        </mxCell>
        <mxCell id="O_P5X878wxLX0TTWx2cp-19" value="send timestamp to sql server on cloud" style="rounded=0;whiteSpace=wrap;html=1;" parent="1" vertex="1">
          <mxGeometry x="620" y="570" width="120" height="60" as="geometry" />
        </mxCell>
        <mxCell id="O_P5X878wxLX0TTWx2cp-23" style="edgeStyle=orthogonalEdgeStyle;rounded=0;orthogonalLoop=1;jettySize=auto;html=1;entryX=1;entryY=0.5;entryDx=0;entryDy=0;" parent="1" source="O_P5X878wxLX0TTWx2cp-21" target="O_P5X878wxLX0TTWx2cp-16" edge="1">
          <mxGeometry relative="1" as="geometry">
            <Array as="points">
              <mxPoint x="680" y="850" />
            </Array>
          </mxGeometry>
        </mxCell>
        <mxCell id="O_P5X878wxLX0TTWx2cp-21" value="Make light on" style="rounded=0;whiteSpace=wrap;html=1;" parent="1" vertex="1">
          <mxGeometry x="620" y="700" width="120" height="60" as="geometry" />
        </mxCell>
        <mxCell id="O_P5X878wxLX0TTWx2cp-26" value="&lt;span style=&quot;font-size: 18px;&quot;&gt;&amp;nbsp; &amp;nbsp; การทำงาน ตรวจจับแรงสั่นสะเทือนแล้วถ้าค่าสั่นสะเทือนอยู่ในช่วงที่กำหนดให้ทำการส่งข้อมูลขึ้นคลาวพร้อมทำให้ไฟทำงาน&lt;br&gt;&lt;/span&gt;" style="rounded=1;whiteSpace=wrap;html=1;align=left;" parent="1" vertex="1">
          <mxGeometry x="175" y="930" width="510" height="90" as="geometry" />
        </mxCell>
        <mxCell id="x7ZbuQkRyp-WL0nQvcKQ-4" style="edgeStyle=orthogonalEdgeStyle;rounded=0;orthogonalLoop=1;jettySize=auto;html=1;entryX=0;entryY=0.5;entryDx=0;entryDy=0;" parent="1" source="x7ZbuQkRyp-WL0nQvcKQ-1" target="O_P5X878wxLX0TTWx2cp-16" edge="1">
          <mxGeometry relative="1" as="geometry">
            <Array as="points">
              <mxPoint x="210" y="850" />
            </Array>
          </mxGeometry>
        </mxCell>
        <mxCell id="x7ZbuQkRyp-WL0nQvcKQ-1" value="Make light off" style="rounded=0;whiteSpace=wrap;html=1;" parent="1" vertex="1">
          <mxGeometry x="150" y="630" width="120" height="60" as="geometry" />
        </mxCell>
        <mxCell id="Mwp2jrEpsyddei8fZyg7-1" value="&lt;b&gt;สมาชิก&lt;/b&gt;" style="text;html=1;align=center;verticalAlign=middle;whiteSpace=wrap;rounded=0;fontSize=16;" vertex="1" parent="1">
          <mxGeometry x="384" y="1190" width="60" height="30" as="geometry" />
        </mxCell>
        <mxCell id="Mwp2jrEpsyddei8fZyg7-2" value="&lt;b&gt;ไฟส่องส่วาง IOT&lt;/b&gt;" style="text;html=1;align=center;verticalAlign=middle;whiteSpace=wrap;rounded=0;fontSize=16;" vertex="1" parent="1">
          <mxGeometry x="349" y="80" width="130" height="30" as="geometry" />
        </mxCell>
        <mxCell id="Mwp2jrEpsyddei8fZyg7-3" value="พรหมธรรศ&amp;nbsp; พรนิรัชธีรกุล 1630704722&lt;div&gt;เจษฎา วิจิตร 1640705339&lt;/div&gt;" style="text;html=1;align=center;verticalAlign=middle;whiteSpace=wrap;rounded=0;fontSize=16;" vertex="1" parent="1">
          <mxGeometry x="269" y="1260" width="290" height="50" as="geometry" />
        </mxCell>
        <mxCell id="Mwp2jrEpsyddei8fZyg7-4" style="edgeStyle=none;curved=1;rounded=0;orthogonalLoop=1;jettySize=auto;html=1;exitX=1;exitY=1;exitDx=0;exitDy=0;fontSize=12;startSize=8;endSize=8;" edge="1" parent="1" source="Mwp2jrEpsyddei8fZyg7-3" target="Mwp2jrEpsyddei8fZyg7-3">
          <mxGeometry relative="1" as="geometry" />
        </mxCell>
      </root>
    </mxGraphModel>
  </diagram>
</mxfile>
